<?xml version="1.0" encoding="UTF-8" standalone="no"?> <!-- Created with Vectornator for iOS (http://vectornator.io/) --><!DOCTYPE svg PUBLIC "-//W3C//DTD SVG 1.1//EN" "http://www.w3.org/Graphics/SVG/1.1/DTD/svg11.dtd">
<svg height="100%" style="fill-rule:nonzero;clip-rule:evenodd;stroke-linecap:round;stroke-linejoin:round;" xmlns:xlink="http://www.w3.org/1999/xlink" xmlns="http://www.w3.org/2000/svg" xml:space="preserve" width="100%" xmlns:vectornator="http://vectornator.io" version="1.1" viewBox="0 0 24 24">
<metadata>
<vectornator:setting key="DimensionsVisible" value="1"/>
<vectornator:setting key="PencilOnly" value="0"/>
<vectornator:setting key="SnapToPoints" value="0"/>
<vectornator:setting key="OutlineMode" value="0"/>
<vectornator:setting key="CMYKEnabledKey" value="0"/>
<vectornator:setting key="RulersVisible" value="1"/>
<vectornator:setting key="SnapToEdges" value="0"/>
<vectornator:setting key="GuidesVisible" value="1"/>
<vectornator:setting key="DisplayWhiteBackground" value="0"/>
<vectornator:setting key="doHistoryDisabled" value="0"/>
<vectornator:setting key="SnapToGuides" value="1"/>
<vectornator:setting key="TimeLapseWatermarkDisabled" value="0"/>
<vectornator:setting key="Units" value="Points"/>
<vectornator:setting key="DynamicGuides" value="0"/>
<vectornator:setting key="IsolateActiveLayer" value="0"/>
<vectornator:setting key="SnapToGrid" value="0"/>
</metadata>
<defs>
<linearGradient y1="12.1406" id="LinearGradient" x1="0.65625" y2="12.1406" x2="22.9375" gradientUnits="userSpaceOnUse" gradientTransform="matrix(1 0 0 1 0 0)">
<stop stop-color="#1d321b" offset="0.0184664"/>
<stop stop-color="#5fff7d" offset="1"/>
</linearGradient>
<linearGradient y1="12.1406" id="LinearGradient_2" x1="0.65625" y2="12.1406" x2="22.9375" gradientUnits="userSpaceOnUse" gradientTransform="matrix(1 0 0 1 0 0)">
<stop stop-color="#494b49" offset="0"/>
<stop stop-color="#ffffff" offset="1"/>
</linearGradient>
</defs>
<g id="Layer 1 copy copy copy" vectornator:layerName="Layer 1 copy copy copy" visibility="hidden">
<path stroke="#ffffff" vectornator:shadowColor="#000000" vectornator:shadowOffset="16.3586" stroke-width="1" fill="#141414" stroke-linecap="butt" vectornator:shadowAngle="1.5708" stroke-linejoin="round" opacity="1" vectornator:shadowRadius="14.8067" d="M10.6562+1.40625C5.15625+1.40625+0.65625+5.90625+0.65625+11.4062C0.65625+16.9063+5.15625+21.4062+10.6562+21.4062C11.8099+21.4062+12.8729+21.0824+13.9062+20.7188C14.8128+21.9903+16.2569+22.875+17.9375+22.875C20.6989+22.875+22.9375+20.6364+22.9375+17.875C22.9375+15.9507+21.8122+14.3359+20.2188+13.5C20.3743+12.8023+20.6563+12.1491+20.6562+11.4062C20.6562+5.90625+16.1563+1.40625+10.6562+1.40625ZM16.6562+6.40625C16.6562+6.40625+14.85+16.5938+8.25+16.5938C8.03+16.5938+7.7175+16.5263+7.4375+16.4062L6.875+17.7812L5.71875+17.4062L5.90625+17C7.10625+13.98+8.48625+10.5562+13.6562+9.40625C13.6562+9.40625+7.6375+9.3875+5.6875+14.9375C5.6875+14.9375+4.65625+13.8875+4.65625+12.6875C4.65625+11.4875+5.84375+8.94375+8.84375+8.34375C9.69375+8.17375+10.6538+8.05625+11.5938+7.90625C13.9538+7.58625+16.2262+7.26625+16.6562+6.40625ZM15.2812+15.1562L20.8438+15.1562C21.3198+15.1562+21.7188+15.5356+21.7188+16L21.7188+19.7812C21.7187+20.2499+21.3198+20.625+20.8438+20.625L15.2812+20.625C14.8095+20.625+14.4062+20.2499+14.4062+19.7812L14.4062+16C14.4063+15.5356+14.8095+15.1562+15.2812+15.1562ZM12.6875+15.7812L13.5625+15.7812C13.5539+15.853+13.5625+15.9282+13.5625+16L13.5625+16.625L12.6875+16.625C12.4516+16.625+12.2813+16.4197+12.2812+16.1875C12.2812+15.9553+12.4516+15.7813+12.6875+15.7812ZM15.2812+16L15.2812+16.6875L18.0625+18.0938L20.8438+16.6875L20.8438+16L18.0625+17.375L15.2812+16ZM11.9375+17.4688L12.2812+17.4688L13.5625+17.4688L13.5625+18.3125L12.2812+18.3125L11.9375+18.3125C11.6391+18.3125+11.4063+18.1072+11.4062+17.875C11.4062+17.6428+11.6391+17.4688+11.9375+17.4688ZM11.1562+19.1562L11.8438+19.1562L13.5312+19.1562L13.5625+19.1562L13.5625+19.7812C13.5625+19.853+13.5539+19.9282+13.5625+20L11.8438+20L11.1562+20C10.8283+20+10.5625+19.8259+10.5625+19.5938C10.5625+19.3616+10.8283+19.1563+11.1562+19.1562Z" vectornator:shadowOpacity="1"/>
</g>
<g id="Layer 1" vectornator:layerName="Layer 1" visibility="hidden">
<path vectornator:shadowColor="#000000" vectornator:shadowOpacity="1" vectornator:shadowRadius="14.8067" d="M18.6698+16.9816C18.6698+16.9529+18.6719+16.9296+18.6743+16.9296C18.6768+16.9296+18.6788+16.9529+18.6788+16.9816C18.6788+17.0102+18.6768+17.0335+18.6743+17.0335C18.6719+17.0335+18.6698+17.0102+18.6698+16.9816Z" vectornator:shadowOffset="16.3586" fill="#000000" opacity="1" vectornator:shadowAngle="1.5708"/>
<path vectornator:shadowColor="#000000" vectornator:shadowOpacity="1" vectornator:shadowRadius="14.8067" d="M10.6562+1.40625C5.15625+1.40625+0.65625+5.90625+0.65625+11.4062C0.65625+16.9063+5.15625+21.4062+10.6562+21.4062C11.8099+21.4062+12.8729+21.0824+13.9062+20.7188C14.8128+21.9903+16.2569+22.875+17.9375+22.875C20.6989+22.875+22.9375+20.6364+22.9375+17.875C22.9375+17.1806+22.6685+16.5918+22.4062+16C22.393+15.97+22.3889+15.9359+22.375+15.9062C22.3714+15.8985+22.3786+15.8827+22.375+15.875C22.1455+15.3923+21.8363+15.0078+21.4688+14.625C21.3885+14.5461+21.3051+14.4795+21.2188+14.4062C20.885+14.1009+20.6237+13.7125+20.2188+13.5C20.3743+12.8023+20.6563+12.1491+20.6562+11.4062C20.6562+5.90625+16.1563+1.40625+10.6562+1.40625Z" vectornator:shadowOffset="16.3586" fill="url(#LinearGradient)" opacity="1" vectornator:shadowAngle="1.5708"/>
</g>
<g id="Layer 1 copy" vectornator:layerName="Layer 1 copy" visibility="hidden">
<path stroke="#4b4949" vectornator:shadowColor="#000000" vectornator:shadowOffset="16.3586" stroke-width="0.15" fill="none" stroke-linecap="butt" vectornator:shadowAngle="1.5708" stroke-linejoin="round" opacity="1" vectornator:shadowRadius="14.8067" d="M16.6562+6.40625C16.6562+6.40625+14.85+16.5938+8.25+16.5938C8.03+16.5938+7.7175+16.5263+7.4375+16.4062L6.875+17.7812L5.71875+17.4062L5.90625+17C7.10625+13.98+8.48625+10.5562+13.6562+9.40625C13.6562+9.40625+7.6375+9.3875+5.6875+14.9375C5.6875+14.9375+4.65625+13.8875+4.65625+12.6875C4.65625+11.4875+5.84375+8.94375+8.84375+8.34375C9.69375+8.17375+10.6538+8.05625+11.5938+7.90625C13.9538+7.58625+16.2262+7.26625+16.6562+6.40625Z" vectornator:shadowOpacity="1"/>
<path stroke="#4b4949" vectornator:shadowColor="#000000" vectornator:shadowOffset="16.3586" stroke-width="0.15" fill="none" stroke-linecap="butt" vectornator:shadowAngle="1.5708" stroke-linejoin="round" opacity="1" vectornator:shadowRadius="14.8067" d="M15.2812+15.1562L20.8438+15.1562C21.3198+15.1562+21.7188+15.5356+21.7188+16L21.7188+19.7812C21.7187+20.2499+21.3198+20.625+20.8438+20.625L15.2812+20.625C14.8095+20.625+14.4062+20.2499+14.4062+19.7812L14.4062+16C14.4063+15.5356+14.8095+15.1562+15.2812+15.1562Z" vectornator:shadowOpacity="1"/>
<path stroke="#4b4949" vectornator:shadowColor="#000000" vectornator:shadowOffset="16.3586" stroke-width="0.15" fill="none" stroke-linecap="butt" vectornator:shadowAngle="1.5708" stroke-linejoin="round" opacity="1" vectornator:shadowRadius="14.8067" d="M12.6875+15.7812L13.5625+15.7812C13.5539+15.853+13.5625+15.9282+13.5625+16L13.5625+16.625L12.6875+16.625C12.4516+16.625+12.2813+16.4197+12.2812+16.1875C12.2812+15.9553+12.4516+15.7813+12.6875+15.7812Z" vectornator:shadowOpacity="1"/>
<path stroke="#4b4949" vectornator:shadowColor="#000000" vectornator:shadowOffset="16.3586" stroke-width="0.15" fill="none" stroke-linecap="butt" vectornator:shadowAngle="1.5708" stroke-linejoin="round" opacity="1" vectornator:shadowRadius="14.8067" d="M15.2812+16L15.2812+16.6875L18.0625+18.0938L20.8438+16.6875L20.8438+16L18.0625+17.375L15.2812+16Z" vectornator:shadowOpacity="1"/>
<path stroke="#4b4949" vectornator:shadowColor="#000000" vectornator:shadowOffset="16.3586" stroke-width="0.15" fill="none" stroke-linecap="butt" vectornator:shadowAngle="1.5708" stroke-linejoin="round" opacity="1" vectornator:shadowRadius="14.8067" d="M11.9375+17.4688L12.2812+17.4688L13.5625+17.4688L13.5625+18.3125L12.2812+18.3125L11.9375+18.3125C11.6391+18.3125+11.4063+18.1072+11.4062+17.875C11.4062+17.6428+11.6391+17.4688+11.9375+17.4688Z" vectornator:shadowOpacity="1"/>
<path stroke="#4b4949" vectornator:shadowColor="#000000" vectornator:shadowOffset="16.3586" stroke-width="0.15" fill="none" stroke-linecap="butt" vectornator:shadowAngle="1.5708" stroke-linejoin="round" opacity="1" vectornator:shadowRadius="14.8067" d="M11.1562+19.1562L11.8438+19.1562L13.5312+19.1562L13.5625+19.1562L13.5625+19.7812C13.5625+19.853+13.5539+19.9282+13.5625+20L11.8438+20L11.1562+20C10.8283+20+10.5625+19.8259+10.5625+19.5938C10.5625+19.3616+10.8283+19.1563+11.1562+19.1562Z" vectornator:shadowOpacity="1"/>
</g>
<g id="Layer 1 copy copy" vectornator:layerName="Layer 1 copy copy" visibility="hidden">
<path stroke="#ffffff" vectornator:shadowColor="#000000" vectornator:shadowOffset="16.3586" stroke-width="0.1" fill="url(#LinearGradient_2)" stroke-linecap="butt" vectornator:shadowAngle="1.5708" stroke-linejoin="round" opacity="1" vectornator:shadowRadius="14.8067" d="M10.6562+1.40625C5.15625+1.40625+0.65625+5.90625+0.65625+11.4062C0.65625+16.9063+5.15625+21.4062+10.6562+21.4062C11.8099+21.4062+12.8729+21.0824+13.9062+20.7188C14.8128+21.9903+16.2569+22.875+17.9375+22.875C20.6989+22.875+22.9375+20.6364+22.9375+17.875C22.9375+15.9507+21.8122+14.3359+20.2188+13.5C20.3743+12.8023+20.6563+12.1491+20.6562+11.4062C20.6562+5.90625+16.1563+1.40625+10.6562+1.40625ZM16.6562+6.40625C16.6562+6.40625+14.85+16.5938+8.25+16.5938C8.03+16.5938+7.7175+16.5263+7.4375+16.4062L6.875+17.7812L5.71875+17.4062L5.90625+17C7.10625+13.98+8.48625+10.5562+13.6562+9.40625C13.6562+9.40625+7.6375+9.3875+5.6875+14.9375C5.6875+14.9375+4.65625+13.8875+4.65625+12.6875C4.65625+11.4875+5.84375+8.94375+8.84375+8.34375C9.69375+8.17375+10.6538+8.05625+11.5938+7.90625C13.9538+7.58625+16.2262+7.26625+16.6562+6.40625ZM15.2812+15.1562L20.8438+15.1562C21.3198+15.1562+21.7188+15.5356+21.7188+16L21.7188+19.7812C21.7187+20.2499+21.3198+20.625+20.8438+20.625L15.2812+20.625C14.8095+20.625+14.4062+20.2499+14.4062+19.7812L14.4062+16C14.4063+15.5356+14.8095+15.1562+15.2812+15.1562ZM12.6875+15.7812L13.5625+15.7812C13.5539+15.853+13.5625+15.9282+13.5625+16L13.5625+16.625L12.6875+16.625C12.4516+16.625+12.2813+16.4197+12.2812+16.1875C12.2812+15.9553+12.4516+15.7813+12.6875+15.7812ZM15.2812+16L15.2812+16.6875L18.0625+18.0938L20.8438+16.6875L20.8438+16L18.0625+17.375L15.2812+16ZM11.9375+17.4688L12.2812+17.4688L13.5625+17.4688L13.5625+18.3125L12.2812+18.3125L11.9375+18.3125C11.6391+18.3125+11.4063+18.1072+11.4062+17.875C11.4062+17.6428+11.6391+17.4688+11.9375+17.4688ZM11.1562+19.1562L11.8438+19.1562L13.5312+19.1562L13.5625+19.1562L13.5625+19.7812C13.5625+19.853+13.5539+19.9282+13.5625+20L11.8438+20L11.1562+20C10.8283+20+10.5625+19.8259+10.5625+19.5938C10.5625+19.3616+10.8283+19.1563+11.1562+19.1562Z" vectornator:shadowOpacity="1"/>
</g>
<g id="icon dark" vectornator:layerName="icon dark">
<path d="M10.6562+1.40625C5.15625+1.40625+0.65625+5.90625+0.65625+11.4062C0.65625+16.9063+5.15625+21.4062+10.6562+21.4062C11.8099+21.4062+12.8729+21.0824+13.9062+20.7188C14.8128+21.9903+16.2569+22.875+17.9375+22.875C20.6989+22.875+22.9375+20.6364+22.9375+17.875C22.9375+15.9507+21.8122+14.3359+20.2188+13.5C20.3743+12.8023+20.6563+12.1491+20.6562+11.4062C20.6562+5.90625+16.1563+1.40625+10.6562+1.40625ZM16.6562+6.40625C16.6562+6.40625+14.85+16.5938+8.25+16.5938C8.03+16.5938+7.7175+16.5263+7.4375+16.4062L6.875+17.7812L5.71875+17.4062L5.90625+17C7.10625+13.98+8.48625+10.5562+13.6562+9.40625C13.6562+9.40625+7.6375+9.3875+5.6875+14.9375C5.6875+14.9375+4.65625+13.8875+4.65625+12.6875C4.65625+11.4875+5.84375+8.94375+8.84375+8.34375C9.69375+8.17375+10.6538+8.05625+11.5938+7.90625C13.9538+7.58625+16.2262+7.26625+16.6562+6.40625ZM15.2812+15.1562L20.8438+15.1562C21.3198+15.1562+21.7188+15.5356+21.7188+16L21.7188+19.7812C21.7187+20.2499+21.3198+20.625+20.8438+20.625L15.2812+20.625C14.8095+20.625+14.4062+20.2499+14.4062+19.7812L14.4062+16C14.4063+15.5356+14.8095+15.1562+15.2812+15.1562ZM12.6875+15.7812L13.5625+15.7812C13.5539+15.853+13.5625+15.9282+13.5625+16L13.5625+16.625L12.6875+16.625C12.4516+16.625+12.2813+16.4197+12.2812+16.1875C12.2812+15.9553+12.4516+15.7813+12.6875+15.7812ZM15.2812+16L15.2812+16.6875L18.0625+18.0938L20.8438+16.6875L20.8438+16L18.0625+17.375L15.2812+16ZM11.9375+17.4688L12.2812+17.4688L13.5625+17.4688L13.5625+18.3125L12.2812+18.3125L11.9375+18.3125C11.6391+18.3125+11.4063+18.1072+11.4062+17.875C11.4062+17.6428+11.6391+17.4688+11.9375+17.4688ZM11.1562+19.1562L11.8438+19.1562L13.5312+19.1562L13.5625+19.1562L13.5625+19.7812C13.5625+19.853+13.5539+19.9282+13.5625+20L11.8438+20L11.1562+20C10.8283+20+10.5625+19.8259+10.5625+19.5938C10.5625+19.3616+10.8283+19.1563+11.1562+19.1562Z" opacity="0.848297" fill="#141414"/>
</g>
<g id="Icon bright" vectornator:layerName="Icon bright" visibility="hidden">
<path d="M10.6562+1.40625C5.15625+1.40625+0.65625+5.90625+0.65625+11.4062C0.65625+16.9063+5.15625+21.4062+10.6562+21.4062C11.8099+21.4062+12.8729+21.0824+13.9062+20.7188C14.8128+21.9903+16.2569+22.875+17.9375+22.875C20.6989+22.875+22.9375+20.6364+22.9375+17.875C22.9375+15.9507+21.8122+14.3359+20.2188+13.5C20.3743+12.8023+20.6563+12.1491+20.6562+11.4062C20.6562+5.90625+16.1563+1.40625+10.6562+1.40625ZM16.6562+6.40625C16.6562+6.40625+14.85+16.5938+8.25+16.5938C8.03+16.5938+7.7175+16.5263+7.4375+16.4062L6.875+17.7812L5.71875+17.4062L5.90625+17C7.10625+13.98+8.48625+10.5562+13.6562+9.40625C13.6562+9.40625+7.6375+9.3875+5.6875+14.9375C5.6875+14.9375+4.65625+13.8875+4.65625+12.6875C4.65625+11.4875+5.84375+8.94375+8.84375+8.34375C9.69375+8.17375+10.6538+8.05625+11.5938+7.90625C13.9538+7.58625+16.2262+7.26625+16.6562+6.40625ZM15.2812+15.1562L20.8438+15.1562C21.3198+15.1562+21.7188+15.5356+21.7188+16L21.7188+19.7812C21.7187+20.2499+21.3198+20.625+20.8438+20.625L15.2812+20.625C14.8095+20.625+14.4062+20.2499+14.4062+19.7812L14.4062+16C14.4063+15.5356+14.8095+15.1562+15.2812+15.1562ZM12.6875+15.7812L13.5625+15.7812C13.5539+15.853+13.5625+15.9282+13.5625+16L13.5625+16.625L12.6875+16.625C12.4516+16.625+12.2813+16.4197+12.2812+16.1875C12.2812+15.9553+12.4516+15.7813+12.6875+15.7812ZM15.2812+16L15.2812+16.6875L18.0625+18.0938L20.8438+16.6875L20.8438+16L18.0625+17.375L15.2812+16ZM11.9375+17.4688L12.2812+17.4688L13.5625+17.4688L13.5625+18.3125L12.2812+18.3125L11.9375+18.3125C11.6391+18.3125+11.4063+18.1072+11.4062+17.875C11.4062+17.6428+11.6391+17.4688+11.9375+17.4688ZM11.1562+19.1562L11.8438+19.1562L13.5312+19.1562L13.5625+19.1562L13.5625+19.7812C13.5625+19.853+13.5539+19.9282+13.5625+20L11.8438+20L11.1562+20C10.8283+20+10.5625+19.8259+10.5625+19.5938C10.5625+19.3616+10.8283+19.1563+11.1562+19.1562Z" opacity="0.848297" fill="#ffffff"/>
</g>
<g id="Icon bright copy" vectornator:layerName="Icon bright copy" visibility="hidden">
<path d="M10.6562+1.40625C5.15625+1.40625+0.65625+5.90625+0.65625+11.4062C0.65625+16.9063+5.15625+21.4062+10.6562+21.4062C11.8099+21.4062+12.8729+21.0824+13.9062+20.7188C14.8128+21.9903+16.2569+22.875+17.9375+22.875C20.6989+22.875+22.9375+20.6364+22.9375+17.875C22.9375+15.9507+21.8122+14.3359+20.2188+13.5C20.3743+12.8023+20.6563+12.1491+20.6562+11.4062C20.6562+5.90625+16.1563+1.40625+10.6562+1.40625ZM16.6562+6.40625C16.6562+6.40625+14.85+16.5938+8.25+16.5938C8.03+16.5938+7.7175+16.5263+7.4375+16.4062L6.875+17.7812L5.71875+17.4062L5.90625+17C7.10625+13.98+8.48625+10.5562+13.6562+9.40625C13.6562+9.40625+7.6375+9.3875+5.6875+14.9375C5.6875+14.9375+4.65625+13.8875+4.65625+12.6875C4.65625+11.4875+5.84375+8.94375+8.84375+8.34375C9.69375+8.17375+10.6538+8.05625+11.5938+7.90625C13.9538+7.58625+16.2262+7.26625+16.6562+6.40625ZM15.2812+15.1562L20.8438+15.1562C21.3198+15.1562+21.7188+15.5356+21.7188+16L21.7188+19.7812C21.7187+20.2499+21.3198+20.625+20.8438+20.625L15.2812+20.625C14.8095+20.625+14.4062+20.2499+14.4062+19.7812L14.4062+16C14.4063+15.5356+14.8095+15.1562+15.2812+15.1562ZM12.6875+15.7812L13.5625+15.7812C13.5539+15.853+13.5625+15.9282+13.5625+16L13.5625+16.625L12.6875+16.625C12.4516+16.625+12.2813+16.4197+12.2812+16.1875C12.2812+15.9553+12.4516+15.7813+12.6875+15.7812ZM15.2812+16L15.2812+16.6875L18.0625+18.0938L20.8438+16.6875L20.8438+16L18.0625+17.375L15.2812+16ZM11.9375+17.4688L12.2812+17.4688L13.5625+17.4688L13.5625+18.3125L12.2812+18.3125L11.9375+18.3125C11.6391+18.3125+11.4063+18.1072+11.4062+17.875C11.4062+17.6428+11.6391+17.4688+11.9375+17.4688ZM11.1562+19.1562L11.8438+19.1562L13.5312+19.1562L13.5625+19.1562L13.5625+19.7812C13.5625+19.853+13.5539+19.9282+13.5625+20L11.8438+20L11.1562+20C10.8283+20+10.5625+19.8259+10.5625+19.5938C10.5625+19.3616+10.8283+19.1563+11.1562+19.1562Z" opacity="1" fill="#ffffff"/>
</g>
</svg>
